<svg width="40" height="40" viewBox="0 0 40 40" fill="none" xmlns="http://www.w3.org/2000/svg">
<path d="M19.9835 3.33325C10.7835 3.33325 3.3335 10.7999 3.3335 19.9999C3.3335 29.1999 10.7835 36.6666 19.9835 36.6666C29.2002 36.6666 36.6668 29.1999 36.6668 19.9999C36.6668 10.7999 29.2002 3.33325 19.9835 3.33325ZM20.0002 33.3333C12.6335 33.3333 6.66683 27.3666 6.66683 19.9999C6.66683 12.6333 12.6335 6.66659 20.0002 6.66659C27.3668 6.66659 33.3335 12.6333 33.3335 19.9999C33.3335 27.3666 27.3668 33.3333 20.0002 33.3333Z" fill="white"/>
<path d="M20.8335 11.6667H18.3335V21.6667L27.0835 26.9167L28.3335 24.8667L20.8335 20.4167V11.6667Z" fill="white"/>
</svg>
